<svg aria-hidden="true" style="position: absolute; width: 0; height: 0; overflow: hidden;" version="1.1" xmlns="http://www.w3.org/2000/svg" xmlns:xlink="http://www.w3.org/1999/xlink">
<defs>
<symbol id="icon-Group-41" viewBox="0 0 32 32">
<path d="M16 17.333v9.333l10.667-10.667-10.667-10.667v9.333h-10.667v2.667h10.667z"></path>
</symbol>
<symbol id="icon-instagram" viewBox="0 0 32 32">
<path d="M16 2.667c3.623 0 4.075 0.013 5.496 0.080 1.42 0.067 2.387 0.289 3.237 0.62 0.88 0.339 1.621 0.797 2.363 1.537 0.678 0.667 1.203 1.473 1.537 2.363 0.329 0.849 0.553 1.817 0.62 3.237 0.063 1.421 0.080 1.873 0.080 5.496s-0.013 4.075-0.080 5.496c-0.067 1.42-0.291 2.387-0.62 3.237-0.334 0.89-0.859 1.697-1.537 2.363-0.667 0.678-1.473 1.202-2.363 1.537-0.849 0.329-1.817 0.553-3.237 0.62-1.421 0.063-1.873 0.080-5.496 0.080s-4.075-0.013-5.496-0.080c-1.42-0.067-2.387-0.291-3.237-0.62-0.89-0.334-1.697-0.859-2.363-1.537-0.678-0.666-1.203-1.473-1.537-2.363-0.331-0.849-0.553-1.817-0.62-3.237-0.063-1.421-0.080-1.873-0.080-5.496s0.013-4.075 0.080-5.496c0.067-1.421 0.289-2.387 0.62-3.237 0.334-0.89 0.858-1.697 1.537-2.363 0.666-0.678 1.473-1.203 2.363-1.537 0.851-0.331 1.816-0.553 3.237-0.62 1.421-0.063 1.873-0.080 5.496-0.080zM16 9.333c-1.768 0-3.464 0.702-4.714 1.953s-1.953 2.946-1.953 4.714c0 1.768 0.702 3.464 1.953 4.714s2.946 1.953 4.714 1.953 3.464-0.702 4.714-1.953c1.25-1.25 1.953-2.946 1.953-4.714s-0.702-3.464-1.953-4.714c-1.25-1.25-2.946-1.953-4.714-1.953zM24.667 9c0-0.442-0.176-0.866-0.488-1.178s-0.737-0.488-1.179-0.488c-0.442 0-0.866 0.176-1.179 0.488s-0.488 0.736-0.488 1.178c0 0.442 0.176 0.866 0.488 1.178s0.737 0.488 1.179 0.488c0.442 0 0.866-0.176 1.179-0.488s0.488-0.736 0.488-1.178zM16 12c1.061 0 2.078 0.421 2.828 1.172s1.172 1.768 1.172 2.828c0 1.061-0.421 2.078-1.172 2.828s-1.768 1.172-2.828 1.172c-1.061 0-2.078-0.421-2.828-1.172s-1.172-1.768-1.172-2.828c0-1.061 0.421-2.078 1.172-2.828s1.768-1.172 2.828-1.172z"></path>
</symbol>
<symbol id="icon-faceboock" viewBox="0 0 32 32">
<path d="M16 2.667c-7.364 0-13.333 5.969-13.333 13.333 0 6.655 4.876 12.171 11.251 13.172v-9.319h-3.387v-3.853h3.387v-2.937c0-3.341 1.989-5.187 5.036-5.187 1.459 0 2.984 0.26 2.984 0.26v3.28h-1.68c-1.657 0-2.173 1.028-2.173 2.083v2.501h3.697l-0.591 3.853h-3.107v9.319c6.373-1 11.249-6.519 11.249-13.172 0-7.364-5.969-13.333-13.333-13.333z"></path>
</symbol>
<symbol id="icon-twitter" viewBox="0 0 40 32">
<path d="M38.368 3.703c-1.437 0.636-2.961 1.053-4.521 1.239 1.645-0.984 2.876-2.532 3.464-4.356-1.544 0.919-3.236 1.562-5 1.911-1.185-1.268-2.755-2.108-4.467-2.391s-3.469 0.007-4.999 0.826c-1.53 0.819-2.746 2.12-3.46 3.701s-0.885 3.354-0.488 5.043c-3.13-0.157-6.192-0.97-8.988-2.387s-5.261-3.406-7.238-5.838c-0.7 1.202-1.067 2.568-1.065 3.959 0 2.729 1.389 5.141 3.501 6.552-1.25-0.039-2.472-0.377-3.565-0.984v0.098c0 1.818 0.629 3.58 1.78 4.986s2.753 2.373 4.535 2.733c-1.16 0.314-2.377 0.361-3.558 0.135 0.502 1.565 1.481 2.933 2.8 3.914s2.911 1.524 4.554 1.554c-1.633 1.283-3.503 2.231-5.502 2.79s-4.090 0.719-6.151 0.47c3.599 2.314 7.787 3.543 12.066 3.539 14.481 0 22.4-11.996 22.4-22.4 0-0.339-0.009-0.681-0.024-1.016 1.541-1.114 2.872-2.494 3.928-4.075l-0.002-0.002z"></path>
</symbol>
</defs>
</svg>
