<svg width="187" height="40" viewBox="0 0 187 40" fill="none" xmlns="http://www.w3.org/2000/svg">
<path d="M12.7734 33.3047C11.8828 31.1016 11.2578 28.9922 10.8984 26.9766C10.5391 24.9609 10.3594 23.0547 10.3594 21.2578C10.3594 20.9922 10.3594 20.7266 10.3594 20.4609C10.3594 20.1953 10.375 19.9297 10.4062 19.6641C9.375 19.5391 8.58594 19.3281 8.03906 19.0312C7.50781 18.7188 7.24219 18.3359 7.24219 17.8828C7.24219 17.4297 7.55469 17.0547 8.17969 16.7578C8.82031 16.4609 9.69531 16.25 10.8047 16.125C11.0547 14.5938 11.3828 13.2109 11.7891 11.9766C12.1953 10.7422 12.5859 9.69531 12.9609 8.83594C13.3516 7.96094 13.6875 7.28906 13.9688 6.82031C14.25 6.33594 14.3906 6.07812 14.3906 6.04688L15.2578 6.32812C15.1953 6.51562 15.0781 6.85938 14.9062 7.35938C14.75 7.84375 14.5625 8.49219 14.3438 9.30469C14.1406 10.1016 13.9297 11.0625 13.7109 12.1875C13.4922 13.2969 13.3047 14.5625 13.1484 15.9844H13.1953C14.3828 15.9844 15.5547 16.0469 16.7109 16.1719C17.8672 16.2812 18.9844 16.4688 20.0625 16.7344C20.7969 16.3281 21.4844 15.8672 22.125 15.3516C22.7656 14.8203 23.3203 14.2422 23.7891 13.6172C24.2734 12.9766 24.6484 12.2891 24.9141 11.5547C25.1953 10.8047 25.3359 10.0078 25.3359 9.16406C25.3359 7.99219 25.1328 6.97656 24.7266 6.11719C24.3203 5.25781 23.7969 4.52344 23.1562 3.91406C22.5312 3.28906 21.8203 2.78125 21.0234 2.39062C20.2266 2 19.4375 1.69531 18.6562 1.47656C17.8906 1.25781 17.1719 1.10937 16.5 1.03125C15.8281 0.9375 15.2891 0.890625 14.8828 0.890625C13.3672 0.890625 11.9844 1.03125 10.7344 1.3125C9.48438 1.57812 8.35938 1.92188 7.35938 2.34375C6.375 2.75 5.51562 3.19531 4.78125 3.67969C4.04688 4.14844 3.4375 4.59375 2.95312 5.01562C2.46875 5.42187 2.10156 5.76562 1.85156 6.04688C1.61719 6.3125 1.49219 6.45312 1.47656 6.46875L0.773438 5.88281C0.804688 5.83594 0.953125 5.65625 1.21875 5.34375C1.5 5.03125 1.89844 4.66406 2.41406 4.24219C2.94531 3.80469 3.59375 3.33594 4.35938 2.83594C5.125 2.33594 6.01562 1.88281 7.03125 1.47656C8.04688 1.05469 9.17969 0.703125 10.4297 0.421875C11.6953 0.140625 13.0859 0 14.6016 0C15.6172 0 16.6562 0.0703125 17.7188 0.210938C18.7969 0.335937 19.8359 0.546875 20.8359 0.84375C21.8516 1.14063 22.8125 1.52344 23.7188 1.99219C24.625 2.46094 25.4141 3.03125 26.0859 3.70312C26.7578 4.375 27.2891 5.15625 27.6797 6.04688C28.0703 6.9375 28.2656 7.94531 28.2656 9.07031C28.2656 9.82031 28.1172 10.5703 27.8203 11.3203C27.5234 12.0703 27.1016 12.8047 26.5547 13.5234C26.0078 14.2422 25.3516 14.9219 24.5859 15.5625C23.8203 16.2031 22.9688 16.7891 22.0312 17.3203C23.0781 17.6953 24.0469 18.1562 24.9375 18.7031C25.8281 19.2344 26.5938 19.8672 27.2344 20.6016C27.875 21.3203 28.375 22.1406 28.7344 23.0625C29.0938 23.9844 29.2734 25.0156 29.2734 26.1562C29.2734 27.375 29.0547 28.5312 28.6172 29.625C28.1797 30.7188 27.5625 31.7266 26.7656 32.6484C25.9844 33.5703 25.0469 34.3984 23.9531 35.1328C22.8594 35.8828 21.6562 36.5156 20.3438 37.0312C19.0312 37.5469 17.625 37.9375 16.125 38.2031C14.6406 38.4844 13.1094 38.625 11.5312 38.625C9.54688 38.625 7.82812 38.3906 6.375 37.9219C4.9375 37.4688 3.74219 36.8594 2.78906 36.0938C1.85156 35.3281 1.14844 34.4531 0.679688 33.4688C0.226562 32.4688 0 31.4375 0 30.375C0 29.6875 0.101562 29.0391 0.304688 28.4297C0.523438 27.8047 0.820312 27.2344 1.19531 26.7188C1.58594 26.1875 2.05469 25.7266 2.60156 25.3359C3.14844 24.9297 3.76562 24.6094 4.45312 24.375L4.75781 25.1016C4.16406 25.3203 3.66406 25.6484 3.25781 26.0859C2.86719 26.5234 2.54688 27 2.29688 27.5156C2.0625 28.0312 1.89062 28.5547 1.78125 29.0859C1.6875 29.6172 1.64062 30.0781 1.64062 30.4688C1.64062 30.9375 1.70312 31.4453 1.82812 31.9922C1.95312 32.5391 2.16406 33.0781 2.46094 33.6094C2.75781 34.1406 3.14844 34.6562 3.63281 35.1562C4.13281 35.6562 4.75 36.0938 5.48438 36.4688C6.21875 36.8438 7.08594 37.1406 8.08594 37.3594C9.08594 37.5938 10.2344 37.7109 11.5312 37.7109C12.5312 37.7109 13.6016 37.6016 14.7422 37.3828C15.8828 37.1797 17.0078 36.8672 18.1172 36.4453C19.2266 36.0234 20.2891 35.5 21.3047 34.875C22.3203 34.25 23.2188 33.5156 24 32.6719C24.7812 31.8281 25.3984 30.8828 25.8516 29.8359C26.3203 28.7891 26.5547 27.6406 26.5547 26.3906C26.5547 25.2656 26.3984 24.2656 26.0859 23.3906C25.7734 22.5156 25.3359 21.7422 24.7734 21.0703C24.2266 20.3984 23.5859 19.8281 22.8516 19.3594C22.1172 18.875 21.3281 18.4688 20.4844 18.1406C19.3281 18.6406 18.1094 19.0391 16.8281 19.3359C15.5625 19.6172 14.2422 19.7578 12.8672 19.7578C12.8359 20.3047 12.8125 20.875 12.7969 21.4688C12.7812 22.0469 12.7734 22.6484 12.7734 23.2734C12.7734 24.7734 12.8516 26.3438 13.0078 27.9844C13.1641 29.625 13.3906 31.3516 13.6875 33.1641L12.7734 33.3047ZM12.9141 18.7969C13.7422 18.7656 14.6328 18.6484 15.5859 18.4453C16.5547 18.2266 17.5156 17.9141 18.4688 17.5078C17.5781 17.2891 16.6797 17.1328 15.7734 17.0391C14.8828 16.9297 14.0234 16.875 13.1953 16.875H13.0547C13.0234 17.1875 13 17.5078 12.9844 17.8359C12.9688 18.1484 12.9453 18.4688 12.9141 18.7969ZM8.20312 17.9297C8.20312 18.0391 8.375 18.1719 8.71875 18.3281C9.0625 18.4844 9.64062 18.6094 10.4531 18.7031C10.4844 18.4219 10.5156 18.1406 10.5469 17.8594C10.5781 17.5781 10.6172 17.3047 10.6641 17.0391C9.77344 17.1641 9.14062 17.3203 8.76562 17.5078C8.39062 17.6953 8.20312 17.8359 8.20312 17.9297ZM38.9766 34.125C38.1797 34.125 37.4141 33.9844 36.6797 33.7031C35.9453 33.4219 35.2969 33 34.7344 32.4375C34.1875 31.8594 33.75 31.1406 33.4219 30.2812C33.0938 29.4219 32.9297 28.4141 32.9297 27.2578C32.9297 25.8516 33.1328 24.6016 33.5391 23.5078C33.9453 22.3984 34.4609 21.4688 35.0859 20.7188C35.7266 19.9531 36.4375 19.375 37.2188 18.9844C38 18.5781 38.7656 18.375 39.5156 18.375C40.4844 18.375 41.25 18.6953 41.8125 19.3359C42.3906 19.9766 42.6797 20.8047 42.6797 21.8203C42.6797 22.6953 42.5156 23.4922 42.1875 24.2109C41.8594 24.9141 41.4219 25.5234 40.875 26.0391C40.3438 26.5391 39.7266 26.9297 39.0234 27.2109C38.3359 27.4922 37.6172 27.6328 36.8672 27.6328C36.5078 27.6328 36.1641 27.6172 35.8359 27.5859C35.5234 27.5391 35.2422 27.4922 34.9922 27.4453C35.0859 28.4141 35.2734 29.25 35.5547 29.9531C35.8359 30.6562 36.1875 31.2344 36.6094 31.6875C37.0312 32.1406 37.5 32.4766 38.0156 32.6953C38.5469 32.9141 39.0938 33.0234 39.6562 33.0234C40.3594 33.0234 41.0078 32.8516 41.6016 32.5078C42.1953 32.1641 42.7422 31.7188 43.2422 31.1719C43.7422 30.6094 44.1953 29.9688 44.6016 29.25C45.0234 28.5312 45.3984 27.8047 45.7266 27.0703C46.0547 26.3203 46.3438 25.5938 46.5938 24.8906C46.8594 24.1719 47.0938 23.5391 47.2969 22.9922L48.2109 23.2266C48.0078 23.7422 47.7656 24.3672 47.4844 25.1016C47.2188 25.8359 46.9062 26.6094 46.5469 27.4219C46.1875 28.2188 45.7656 29.0234 45.2812 29.8359C44.7969 30.6328 44.25 31.3516 43.6406 31.9922C43.0312 32.6172 42.3359 33.1328 41.5547 33.5391C40.7891 33.9297 39.9297 34.125 38.9766 34.125ZM39.5625 19.2891C38.9844 19.2891 38.4141 19.4766 37.8516 19.8516C37.3047 20.2109 36.8125 20.7109 36.375 21.3516C35.9375 21.9922 35.5781 22.75 35.2969 23.625C35.0312 24.5 34.8984 25.4375 34.8984 26.4375C35.1016 26.5156 35.3828 26.5859 35.7422 26.6484C36.1172 26.6953 36.5703 26.7188 37.1016 26.7188C37.6641 26.7188 38.2188 26.6016 38.7656 26.3672C39.3281 26.1172 39.8281 25.7812 40.2656 25.3594C40.7188 24.9219 41.0781 24.4062 41.3438 23.8125C41.625 23.2188 41.7656 22.5703 41.7656 21.8672C41.7656 21.5234 41.7188 21.1953 41.625 20.8828C41.5312 20.5703 41.3906 20.2969 41.2031 20.0625C41.0156 19.8281 40.7812 19.6406 40.5 19.5C40.2344 19.3594 39.9219 19.2891 39.5625 19.2891ZM65.3438 23.2266C64.7031 24.9609 64.1172 26.4141 63.5859 27.5859C63.0703 28.7578 62.5625 29.7031 62.0625 30.4219C61.5781 31.1406 61.0938 31.6562 60.6094 31.9688C60.125 32.2812 59.5938 32.4375 59.0156 32.4375C58.3125 32.4375 57.7109 32.1953 57.2109 31.7109C56.7109 31.2109 56.3984 30.4453 56.2734 29.4141C55.7734 30.4922 55.125 31.375 54.3281 32.0625C53.5312 32.7344 52.5312 33.0703 51.3281 33.0703C50.6875 33.0703 50.0703 32.9531 49.4766 32.7188C48.8984 32.4844 48.3828 32.125 47.9297 31.6406C47.4766 31.1406 47.1094 30.5156 46.8281 29.7656C46.5625 29.0156 46.4297 28.1328 46.4297 27.1172C46.4297 26.0859 46.5547 25.1172 46.8047 24.2109C47.0703 23.3047 47.4141 22.4766 47.8359 21.7266C48.2578 20.9609 48.7422 20.2812 49.2891 19.6875C49.8516 19.0938 50.4297 18.5938 51.0234 18.1875C51.6172 17.7812 52.2109 17.4688 52.8047 17.25C53.3984 17.0312 53.9453 16.9219 54.4453 16.9219C54.8828 16.9219 55.3047 16.9766 55.7109 17.0859C56.1172 17.1953 56.4766 17.375 56.7891 17.625C57.1172 17.8594 57.375 18.1797 57.5625 18.5859C57.7656 18.9922 57.8672 19.5 57.8672 20.1094C57.8672 20.8281 57.7266 21.4531 57.4453 21.9844C57.1797 22.5156 56.8516 22.9609 56.4609 23.3203C56.0859 23.6797 55.6953 23.9688 55.2891 24.1875C54.8984 24.4062 54.5859 24.5625 54.3516 24.6562L54.0703 23.7422C54.1172 23.7422 54.2891 23.6797 54.5859 23.5547C54.8984 23.4297 55.2188 23.2266 55.5469 22.9453C55.8906 22.6484 56.2031 22.2734 56.4844 21.8203C56.7656 21.3672 56.9062 20.8125 56.9062 20.1562C56.9062 19.4062 56.6953 18.8359 56.2734 18.4453C55.8516 18.0391 55.3125 17.8359 54.6562 17.8359C54.1562 17.8359 53.5703 18.0156 52.8984 18.375C52.2266 18.7344 51.5781 19.2969 50.9531 20.0625C50.3438 20.8281 49.8203 21.7969 49.3828 22.9688C48.9609 24.1406 48.75 25.5391 48.75 27.1641C48.75 28.7734 49.0312 30 49.5938 30.8438C50.1719 31.6875 50.9453 32.1094 51.9141 32.1094C52.3984 32.1094 52.8594 31.9766 53.2969 31.7109C53.75 31.4297 54.1641 31.0625 54.5391 30.6094C54.9141 30.1562 55.25 29.6328 55.5469 29.0391C55.8438 28.4297 56.1016 27.8047 56.3203 27.1641C56.3203 26.6641 56.375 26.0781 56.4844 25.4062C56.6094 24.7188 56.7969 24.0234 57.0469 23.3203L58.4766 23.7891C58.3984 23.9922 58.3203 24.2578 58.2422 24.5859C58.1641 24.9141 58.0859 25.2734 58.0078 25.6641C57.9453 26.0547 57.8906 26.4609 57.8438 26.8828C57.7969 27.2891 57.7734 27.6875 57.7734 28.0781C57.7734 29.2969 57.8906 30.1406 58.125 30.6094C58.375 31.0625 58.7969 31.2891 59.3906 31.2891C59.7344 31.2891 60.0703 31.1641 60.3984 30.9141C60.7422 30.6641 61.1094 30.2266 61.5 29.6016C61.8906 28.9766 62.3203 28.1328 62.7891 27.0703C63.2578 25.9922 63.8047 24.6328 64.4297 22.9922L65.3438 23.2266ZM64.4531 22.9922C64.6875 22.3828 64.9375 21.8047 65.2031 21.2578C65.4844 20.6953 65.7812 20.2031 66.0938 19.7812C66.4062 19.3594 66.7422 19.0234 67.1016 18.7734C67.4766 18.5078 67.8906 18.375 68.3438 18.375C68.5625 18.375 68.8125 18.4219 69.0938 18.5156C69.375 18.6094 69.6406 18.7969 69.8906 19.0781C70.1562 19.3594 70.375 19.7656 70.5469 20.2969C70.7188 20.8281 70.8047 21.5312 70.8047 22.4062C70.8047 22.8594 70.7812 23.3594 70.7344 23.9062C70.6875 24.4531 70.6406 24.9922 70.5938 25.5234C71.0781 24.4922 71.5547 23.625 72.0234 22.9219C72.5078 22.2031 72.9766 21.6328 73.4297 21.2109C73.8984 20.7734 74.3594 20.4609 74.8125 20.2734C75.2656 20.0703 75.7188 19.9688 76.1719 19.9688C76.375 19.9688 76.6094 20.0156 76.875 20.1094C77.1562 20.2031 77.4141 20.3672 77.6484 20.6016C77.8984 20.8359 78.1016 21.1562 78.2578 21.5625C78.4297 21.9688 78.5156 22.4922 78.5156 23.1328C78.5156 23.6484 78.4766 24.1641 78.3984 24.6797C78.3203 25.1953 78.2344 25.6953 78.1406 26.1797C78.0469 26.6641 77.9609 27.125 77.8828 27.5625C77.8047 27.9844 77.7656 28.3594 77.7656 28.6875C77.7656 29.4688 77.9062 30.0703 78.1875 30.4922C78.4688 30.8984 78.8984 31.1016 79.4766 31.1016C79.9453 31.1016 80.3906 30.9297 80.8125 30.5859C81.2344 30.2266 81.625 29.7734 81.9844 29.2266C82.3594 28.6797 82.6953 28.0781 82.9922 27.4219C83.3047 26.7656 83.5703 26.1406 83.7891 25.5469C84.0234 24.9375 84.2188 24.4062 84.375 23.9531C84.5312 23.4844 84.6406 23.1641 84.7031 22.9922L85.6172 23.2266C85.3984 23.7734 85.1641 24.3828 84.9141 25.0547C84.6797 25.7109 84.4141 26.375 84.1172 27.0469C83.8203 27.7188 83.5 28.375 83.1562 29.0156C82.8125 29.6406 82.4297 30.1953 82.0078 30.6797C81.5859 31.1641 81.125 31.5547 80.625 31.8516C80.1406 32.1484 79.6016 32.2969 79.0078 32.2969C78.5078 32.2969 78.0703 32.2031 77.6953 32.0156C77.3359 31.8125 77.0312 31.5469 76.7812 31.2188C76.5312 30.8906 76.3438 30.5 76.2188 30.0469C76.0938 29.5938 76.0312 29.1094 76.0312 28.5938C76.0312 28.0156 76.0781 27.4219 76.1719 26.8125C76.2812 26.2031 76.3906 25.6172 76.5 25.0547C76.625 24.4922 76.7344 23.9766 76.8281 23.5078C76.9375 23.0234 76.9922 22.625 76.9922 22.3125C76.9922 21.8281 76.8984 21.4688 76.7109 21.2344C76.5234 20.9844 76.2656 20.8594 75.9375 20.8594C75.4844 20.8594 75.0391 21.0234 74.6016 21.3516C74.1797 21.6797 73.7656 22.1172 73.3594 22.6641C72.9688 23.2109 72.5938 23.8359 72.2344 24.5391C71.875 25.2422 71.5391 25.9688 71.2266 26.7188C70.9297 27.4531 70.6484 28.1875 70.3828 28.9219C70.1328 29.6562 69.9141 30.3203 69.7266 30.9141C69.5391 31.5078 69.375 32.0156 69.2344 32.4375C69.1094 32.8438 69.0234 33.1016 68.9766 33.2109L67.6172 32.9766C67.8047 32.0547 67.9766 31.0859 68.1328 30.0703C68.2891 29.0391 68.4219 28.0312 68.5312 27.0469C68.6562 26.0469 68.75 25.0938 68.8125 24.1875C68.8906 23.2812 68.9297 22.4766 68.9297 21.7734C68.9297 20.8203 68.8672 20.1797 68.7422 19.8516C68.6172 19.5078 68.3906 19.3359 68.0625 19.3359C67.7812 19.3359 67.5156 19.4453 67.2656 19.6641C67.0156 19.8672 66.7812 20.1484 66.5625 20.5078C66.3594 20.8516 66.1562 21.2578 65.9531 21.7266C65.75 22.1953 65.5547 22.6953 65.3672 23.2266L64.4531 22.9922ZM100.008 10.125C100.008 11 100.188 11.7891 100.547 12.4922C100.906 13.1797 101.391 13.8125 102 14.3906C102.609 14.9531 103.32 15.4766 104.133 15.9609C104.961 16.4297 105.836 16.8906 106.758 17.3438C107.68 17.7812 108.625 18.2188 109.594 18.6562C110.578 19.0781 111.531 19.5312 112.453 20.0156C113.375 20.4844 114.242 21 115.055 21.5625C115.883 22.1094 116.602 22.7266 117.211 23.4141C117.82 24.0859 118.305 24.8438 118.664 25.6875C119.023 26.5156 119.203 27.4531 119.203 28.5C119.203 30.4062 118.844 32.0625 118.125 33.4688C117.406 34.8594 116.445 36.0078 115.242 36.9141C114.039 37.8359 112.641 38.5156 111.047 38.9531C109.453 39.4062 107.789 39.6328 106.055 39.6328C104.523 39.6328 103.078 39.4297 101.719 39.0234C100.359 38.6328 99.1641 38.0781 98.1328 37.3594C97.1016 36.6562 96.2812 35.8047 95.6719 34.8047C95.0781 33.8203 94.7812 32.7422 94.7812 31.5703C94.7812 30.5391 94.9375 29.6641 95.25 28.9453C95.5781 28.2109 95.9297 27.6094 96.3047 27.1406C96.6953 26.6719 97.0625 26.3281 97.4062 26.1094C97.75 25.8906 97.9453 25.7734 97.9922 25.7578L98.5078 26.8594C98.4766 26.875 98.3281 26.9766 98.0625 27.1641C97.7969 27.3359 97.5078 27.6094 97.1953 27.9844C96.8984 28.3594 96.6172 28.8438 96.3516 29.4375C96.1016 30.0156 95.9766 30.7266 95.9766 31.5703C95.9766 32.4141 96.1328 33.1719 96.4453 33.8438C96.7734 34.5 97.2031 35.0781 97.7344 35.5781C98.2812 36.0781 98.8984 36.5078 99.5859 36.8672C100.289 37.2266 101.016 37.5156 101.766 37.7344C102.516 37.9688 103.266 38.1328 104.016 38.2266C104.766 38.3359 105.461 38.3906 106.102 38.3906C107.758 38.3906 109.258 38.1797 110.602 37.7578C111.945 37.3516 113.086 36.7812 114.023 36.0469C114.977 35.3281 115.711 34.4922 116.227 33.5391C116.742 32.5703 117 31.5312 117 30.4219C117 29.1719 116.734 28.0938 116.203 27.1875C115.672 26.2812 114.969 25.4844 114.094 24.7969C113.219 24.0938 112.219 23.4688 111.094 22.9219C109.984 22.3594 108.844 21.8125 107.672 21.2812C106.516 20.75 105.375 20.1953 104.25 19.6172C103.141 19.0234 102.148 18.3438 101.273 17.5781C100.398 16.8125 99.6953 15.9297 99.1641 14.9297C98.6328 13.9141 98.3672 12.7109 98.3672 11.3203C98.3672 9.77344 98.625 8.35938 99.1406 7.07812C99.6719 5.79687 100.391 4.69531 101.297 3.77344C102.219 2.83594 103.297 2.11719 104.531 1.61719C105.766 1.10156 107.102 0.84375 108.539 0.84375C109.992 0.84375 111.266 1.01562 112.359 1.35938C113.453 1.6875 114.367 2.15625 115.102 2.76562C115.852 3.35937 116.406 4.07812 116.766 4.92188C117.141 5.76562 117.328 6.69531 117.328 7.71094C117.328 8.53906 117.227 9.35156 117.023 10.1484C116.836 10.9297 116.625 11.6328 116.391 12.2578C116.156 12.8828 115.938 13.3906 115.734 13.7812C115.531 14.1719 115.422 14.3906 115.406 14.4375L114.352 13.8516C114.352 13.8359 114.438 13.6484 114.609 13.2891C114.797 12.9297 115 12.4609 115.219 11.8828C115.438 11.3047 115.633 10.6562 115.805 9.9375C115.992 9.20312 116.086 8.46094 116.086 7.71094C116.086 6.86719 115.93 6.10156 115.617 5.41406C115.32 4.71094 114.859 4.11719 114.234 3.63281C113.609 3.14844 112.82 2.77344 111.867 2.50781C110.914 2.24219 109.789 2.10938 108.492 2.10938C107.289 2.10938 106.172 2.3125 105.141 2.71875C104.109 3.10938 103.211 3.66406 102.445 4.38281C101.695 5.10156 101.102 5.95312 100.664 6.9375C100.227 7.90625 100.008 8.96875 100.008 10.125ZM129.188 22.2656C129.188 21.3281 129.406 20.5156 129.844 19.8281C130.297 19.1406 130.875 18.4766 131.578 17.8359C131.359 17.6953 131.125 17.5938 130.875 17.5312C130.625 17.4531 130.383 17.4141 130.148 17.4141C129.633 17.4141 129.078 17.5469 128.484 17.8125C127.906 18.0625 127.367 18.4922 126.867 19.1016C126.383 19.7109 125.977 20.5312 125.648 21.5625C125.32 22.5781 125.156 23.8516 125.156 25.3828C125.156 26.6484 125.305 27.7344 125.602 28.6406C125.914 29.5469 126.336 30.2969 126.867 30.8906C127.398 31.4688 128.016 31.8984 128.719 32.1797C129.422 32.4453 130.172 32.5781 130.969 32.5781C131.922 32.5781 132.773 32.3359 133.523 31.8516C134.273 31.3516 134.961 30.6719 135.586 29.8125C136.211 28.9375 136.789 27.9219 137.32 26.7656C137.867 25.5938 138.406 24.3359 138.938 22.9922L139.828 23.2266C139.516 23.9922 139.188 24.7812 138.844 25.5938C138.516 26.4062 138.148 27.2109 137.742 28.0078C137.352 28.7891 136.914 29.5312 136.43 30.2344C135.961 30.9375 135.414 31.5547 134.789 32.0859C134.18 32.6172 133.492 33.0391 132.727 33.3516C131.961 33.6641 131.102 33.8203 130.148 33.8203C129.18 33.8203 128.258 33.6641 127.383 33.3516C126.523 33.0234 125.766 32.5391 125.109 31.8984C124.453 31.2422 123.93 30.4219 123.539 29.4375C123.148 28.4531 122.953 27.2969 122.953 25.9688C122.953 24.625 123.172 23.375 123.609 22.2188C124.062 21.0625 124.633 20.0625 125.32 19.2188C126.008 18.375 126.766 17.7109 127.594 17.2266C128.422 16.7422 129.211 16.5 129.961 16.5C130.836 16.5 131.617 16.7266 132.305 17.1797C132.43 17.0859 132.547 16.9922 132.656 16.8984C132.781 16.7891 132.906 16.6719 133.031 16.5469L133.547 17.2734C133.453 17.3672 133.359 17.4531 133.266 17.5312C133.172 17.6094 133.078 17.6953 132.984 17.7891C133.266 18.1328 133.492 18.5391 133.664 19.0078C133.852 19.4766 133.945 20 133.945 20.5781C133.945 21.2188 133.867 21.7891 133.711 22.2891C133.57 22.7734 133.367 23.1875 133.102 23.5312C132.852 23.875 132.562 24.1328 132.234 24.3047C131.906 24.4766 131.562 24.5625 131.203 24.5625C131.016 24.5625 130.805 24.5234 130.57 24.4453C130.336 24.3516 130.117 24.2188 129.914 24.0469C129.711 23.8594 129.539 23.625 129.398 23.3438C129.258 23.0469 129.188 22.6875 129.188 22.2656ZM132.984 20.5781C132.984 20.125 132.914 19.7188 132.773 19.3594C132.648 19 132.477 18.6875 132.258 18.4219C131.68 18.9219 131.18 19.4844 130.758 20.1094C130.352 20.7188 130.148 21.4375 130.148 22.2656C130.148 22.7031 130.258 23.0469 130.477 23.2969C130.695 23.5312 130.953 23.6484 131.25 23.6484C131.594 23.6484 131.875 23.5391 132.094 23.3203C132.328 23.1016 132.508 22.8359 132.633 22.5234C132.758 22.1953 132.844 21.8594 132.891 21.5156C132.953 21.1562 132.984 20.8438 132.984 20.5781ZM144.07 34.125C143.273 34.125 142.508 33.9844 141.773 33.7031C141.039 33.4219 140.391 33 139.828 32.4375C139.281 31.8594 138.844 31.1406 138.516 30.2812C138.188 29.4219 138.023 28.4141 138.023 27.2578C138.023 25.8516 138.227 24.6016 138.633 23.5078C139.039 22.3984 139.555 21.4688 140.18 20.7188C140.82 19.9531 141.531 19.375 142.312 18.9844C143.094 18.5781 143.859 18.375 144.609 18.375C145.578 18.375 146.344 18.6953 146.906 19.3359C147.484 19.9766 147.773 20.8047 147.773 21.8203C147.773 22.6953 147.609 23.4922 147.281 24.2109C146.953 24.9141 146.516 25.5234 145.969 26.0391C145.438 26.5391 144.82 26.9297 144.117 27.2109C143.43 27.4922 142.711 27.6328 141.961 27.6328C141.602 27.6328 141.258 27.6172 140.93 27.5859C140.617 27.5391 140.336 27.4922 140.086 27.4453C140.18 28.4141 140.367 29.25 140.648 29.9531C140.93 30.6562 141.281 31.2344 141.703 31.6875C142.125 32.1406 142.594 32.4766 143.109 32.6953C143.641 32.9141 144.188 33.0234 144.75 33.0234C145.453 33.0234 146.102 32.8516 146.695 32.5078C147.289 32.1641 147.836 31.7188 148.336 31.1719C148.836 30.6094 149.289 29.9688 149.695 29.25C150.117 28.5312 150.492 27.8047 150.82 27.0703C151.148 26.3203 151.438 25.5938 151.688 24.8906C151.953 24.1719 152.188 23.5391 152.391 22.9922L153.305 23.2266C153.102 23.7422 152.859 24.3672 152.578 25.1016C152.312 25.8359 152 26.6094 151.641 27.4219C151.281 28.2188 150.859 29.0234 150.375 29.8359C149.891 30.6328 149.344 31.3516 148.734 31.9922C148.125 32.6172 147.43 33.1328 146.648 33.5391C145.883 33.9297 145.023 34.125 144.07 34.125ZM144.656 19.2891C144.078 19.2891 143.508 19.4766 142.945 19.8516C142.398 20.2109 141.906 20.7109 141.469 21.3516C141.031 21.9922 140.672 22.75 140.391 23.625C140.125 24.5 139.992 25.4375 139.992 26.4375C140.195 26.5156 140.477 26.5859 140.836 26.6484C141.211 26.6953 141.664 26.7188 142.195 26.7188C142.758 26.7188 143.312 26.6016 143.859 26.3672C144.422 26.1172 144.922 25.7812 145.359 25.3594C145.812 24.9219 146.172 24.4062 146.438 23.8125C146.719 23.2188 146.859 22.5703 146.859 21.8672C146.859 21.5234 146.812 21.1953 146.719 20.8828C146.625 20.5703 146.484 20.2969 146.297 20.0625C146.109 19.8281 145.875 19.6406 145.594 19.5C145.328 19.3594 145.016 19.2891 144.656 19.2891ZM152.391 22.9922C152.625 22.3828 152.875 21.8047 153.141 21.2578C153.422 20.6953 153.719 20.2031 154.031 19.7812C154.344 19.3594 154.68 19.0234 155.039 18.7734C155.414 18.5078 155.828 18.375 156.281 18.375C156.5 18.375 156.75 18.4219 157.031 18.5156C157.312 18.6094 157.578 18.7969 157.828 19.0781C158.094 19.3594 158.312 19.7656 158.484 20.2969C158.656 20.8281 158.742 21.5312 158.742 22.4062C158.742 22.8594 158.719 23.3594 158.672 23.9062C158.625 24.4531 158.578 24.9922 158.531 25.5234C159.016 24.4922 159.492 23.625 159.961 22.9219C160.445 22.2031 160.914 21.6328 161.367 21.2109C161.836 20.7734 162.297 20.4609 162.75 20.2734C163.203 20.0703 163.656 19.9688 164.109 19.9688C164.312 19.9688 164.547 20.0156 164.812 20.1094C165.094 20.2031 165.352 20.3672 165.586 20.6016C165.836 20.8359 166.039 21.1562 166.195 21.5625C166.367 21.9688 166.453 22.4922 166.453 23.1328C166.453 23.6484 166.414 24.1641 166.336 24.6797C166.258 25.1953 166.172 25.6953 166.078 26.1797C165.984 26.6641 165.898 27.125 165.82 27.5625C165.742 27.9844 165.703 28.3594 165.703 28.6875C165.703 29.4688 165.844 30.0703 166.125 30.4922C166.406 30.8984 166.836 31.1016 167.414 31.1016C167.883 31.1016 168.328 30.9297 168.75 30.5859C169.172 30.2266 169.562 29.7734 169.922 29.2266C170.297 28.6797 170.633 28.0781 170.93 27.4219C171.242 26.7656 171.508 26.1406 171.727 25.5469C171.961 24.9375 172.156 24.4062 172.312 23.9531C172.469 23.4844 172.578 23.1641 172.641 22.9922L173.555 23.2266C173.336 23.7734 173.102 24.3828 172.852 25.0547C172.617 25.7109 172.352 26.375 172.055 27.0469C171.758 27.7188 171.438 28.375 171.094 29.0156C170.75 29.6406 170.367 30.1953 169.945 30.6797C169.523 31.1641 169.062 31.5547 168.562 31.8516C168.078 32.1484 167.539 32.2969 166.945 32.2969C166.445 32.2969 166.008 32.2031 165.633 32.0156C165.273 31.8125 164.969 31.5469 164.719 31.2188C164.469 30.8906 164.281 30.5 164.156 30.0469C164.031 29.5938 163.969 29.1094 163.969 28.5938C163.969 28.0156 164.016 27.4219 164.109 26.8125C164.219 26.2031 164.328 25.6172 164.438 25.0547C164.562 24.4922 164.672 23.9766 164.766 23.5078C164.875 23.0234 164.93 22.625 164.93 22.3125C164.93 21.8281 164.836 21.4688 164.648 21.2344C164.461 20.9844 164.203 20.8594 163.875 20.8594C163.422 20.8594 162.977 21.0234 162.539 21.3516C162.117 21.6797 161.703 22.1172 161.297 22.6641C160.906 23.2109 160.531 23.8359 160.172 24.5391C159.812 25.2422 159.477 25.9688 159.164 26.7188C158.867 27.4531 158.586 28.1875 158.32 28.9219C158.07 29.6562 157.852 30.3203 157.664 30.9141C157.477 31.5078 157.312 32.0156 157.172 32.4375C157.047 32.8438 156.961 33.1016 156.914 33.2109L155.555 32.9766C155.742 32.0547 155.914 31.0859 156.07 30.0703C156.227 29.0391 156.359 28.0312 156.469 27.0469C156.594 26.0469 156.688 25.0938 156.75 24.1875C156.828 23.2812 156.867 22.4766 156.867 21.7734C156.867 20.8203 156.805 20.1797 156.68 19.8516C156.555 19.5078 156.328 19.3359 156 19.3359C155.719 19.3359 155.453 19.4453 155.203 19.6641C154.953 19.8672 154.719 20.1484 154.5 20.5078C154.297 20.8516 154.094 21.2578 153.891 21.7266C153.688 22.1953 153.492 22.6953 153.305 23.2266L152.391 22.9922ZM177.773 34.125C176.977 34.125 176.211 33.9844 175.477 33.7031C174.742 33.4219 174.094 33 173.531 32.4375C172.984 31.8594 172.547 31.1406 172.219 30.2812C171.891 29.4219 171.727 28.4141 171.727 27.2578C171.727 25.8516 171.93 24.6016 172.336 23.5078C172.742 22.3984 173.258 21.4688 173.883 20.7188C174.523 19.9531 175.234 19.375 176.016 18.9844C176.797 18.5781 177.562 18.375 178.312 18.375C179.281 18.375 180.047 18.6953 180.609 19.3359C181.188 19.9766 181.477 20.8047 181.477 21.8203C181.477 22.6953 181.312 23.4922 180.984 24.2109C180.656 24.9141 180.219 25.5234 179.672 26.0391C179.141 26.5391 178.523 26.9297 177.82 27.2109C177.133 27.4922 176.414 27.6328 175.664 27.6328C175.305 27.6328 174.961 27.6172 174.633 27.5859C174.32 27.5391 174.039 27.4922 173.789 27.4453C173.883 28.4141 174.07 29.25 174.352 29.9531C174.633 30.6562 174.984 31.2344 175.406 31.6875C175.828 32.1406 176.297 32.4766 176.812 32.6953C177.344 32.9141 177.891 33.0234 178.453 33.0234C179.156 33.0234 179.805 32.8516 180.398 32.5078C180.992 32.1641 181.539 31.7188 182.039 31.1719C182.539 30.6094 182.992 29.9688 183.398 29.25C183.82 28.5312 184.195 27.8047 184.523 27.0703C184.852 26.3203 185.141 25.5938 185.391 24.8906C185.656 24.1719 185.891 23.5391 186.094 22.9922L187.008 23.2266C186.805 23.7422 186.562 24.3672 186.281 25.1016C186.016 25.8359 185.703 26.6094 185.344 27.4219C184.984 28.2188 184.562 29.0234 184.078 29.8359C183.594 30.6328 183.047 31.3516 182.438 31.9922C181.828 32.6172 181.133 33.1328 180.352 33.5391C179.586 33.9297 178.727 34.125 177.773 34.125ZM178.359 19.2891C177.781 19.2891 177.211 19.4766 176.648 19.8516C176.102 20.2109 175.609 20.7109 175.172 21.3516C174.734 21.9922 174.375 22.75 174.094 23.625C173.828 24.5 173.695 25.4375 173.695 26.4375C173.898 26.5156 174.18 26.5859 174.539 26.6484C174.914 26.6953 175.367 26.7188 175.898 26.7188C176.461 26.7188 177.016 26.6016 177.562 26.3672C178.125 26.1172 178.625 25.7812 179.062 25.3594C179.516 24.9219 179.875 24.4062 180.141 23.8125C180.422 23.2188 180.562 22.5703 180.562 21.8672C180.562 21.5234 180.516 21.1953 180.422 20.8828C180.328 20.5703 180.188 20.2969 180 20.0625C179.812 19.8281 179.578 19.6406 179.297 19.5C179.031 19.3594 178.719 19.2891 178.359 19.2891Z" fill="white"/>
</svg>
